<svg width="31" height="34" viewBox="0 0 31 34" fill="none" xmlns="http://www.w3.org/2000/svg">
<path d="M3.875 8.50016L7.75 2.8335H23.25L27.125 8.50016M3.875 8.50016V28.3335C3.875 29.0849 4.14717 29.8056 4.63164 30.337C5.11611 30.8683 5.77319 31.1668 6.45833 31.1668H24.5417C25.2268 31.1668 25.8839 30.8683 26.3684 30.337C26.8528 29.8056 27.125 29.0849 27.125 28.3335V8.50016M3.875 8.50016H27.125M20.6667 14.1668C20.6667 15.6697 20.1223 17.1111 19.1534 18.1738C18.1844 19.2365 16.8703 19.8335 15.5 19.8335C14.1297 19.8335 12.8156 19.2365 11.8466 18.1738C10.8777 17.1111 10.3333 15.6697 10.3333 14.1668" stroke="#F3F3F3" stroke-width="4" stroke-linecap="round" stroke-linejoin="round"/>
</svg>
